<svg width="24" height="25" viewBox="0 0 24 25" fill="none" xmlns="http://www.w3.org/2000/svg">
<path fill-rule="evenodd" clip-rule="evenodd" d="M11.2383 3.29888C10.6243 3.38003 9.86602 3.5542 8.7874 3.80311L7.55922 4.08654C6.6482 4.29677 6.02082 4.44252 5.54162 4.60698C5.07899 4.76576 4.81727 4.92228 4.61978 5.11978C4.42228 5.31727 4.26576 5.57899 4.10698 6.04162C3.94252 6.52082 3.79677 7.1482 3.58654 8.05922L3.30311 9.2874C3.0542 10.366 2.88003 11.1243 2.79888 11.7383C2.71982 12.3365 2.73805 12.7413 2.84358 13.1092C2.94911 13.4772 3.14817 13.8301 3.53226 14.2954C3.92651 14.7731 4.47607 15.3238 5.25882 16.1066L7.08845 17.9362C8.44794 19.2957 9.41533 20.2608 10.247 20.8954C11.0614 21.5167 11.6569 21.75 12.2623 21.75C12.8678 21.75 13.4633 21.5167 14.2776 20.8954C15.1093 20.2608 16.0767 19.2957 17.4362 17.9362C18.7957 16.5767 19.7608 15.6093 20.3954 14.7776C21.0167 13.9633 21.25 13.3678 21.25 12.7623C21.25 12.1569 21.0167 11.5614 20.3954 10.747C19.7608 9.91533 18.7957 8.94794 17.4362 7.58845L15.6066 5.75882C14.8238 4.97607 14.2731 4.42651 13.7954 4.03226C13.3301 3.64817 12.9772 3.44911 12.6092 3.34358C12.2413 3.23805 11.8365 3.21982 11.2383 3.29888ZM11.0418 1.81181C11.7591 1.71701 12.3881 1.71969 13.0227 1.9017C13.6574 2.08372 14.1922 2.41482 14.7502 2.87538C15.2897 3.32061 15.8905 3.9214 16.641 4.67197L18.5368 6.56774C19.8474 7.87835 20.8851 8.91598 21.5879 9.83714C22.311 10.7849 22.75 11.697 22.75 12.7623C22.75 13.8276 22.311 14.7397 21.5879 15.6875C20.8851 16.6087 19.8474 17.6463 18.5368 18.9569L18.4569 19.0368C17.1463 20.3474 16.1087 21.3851 15.1875 22.0879C14.2397 22.811 13.3276 23.25 12.2623 23.25C11.197 23.25 10.2849 22.811 9.33714 22.0879C8.41598 21.3851 7.37833 20.3474 6.06771 19.0368L4.17196 17.141C3.4214 16.3905 2.82061 15.7897 2.37538 15.2502C1.91482 14.6922 1.58372 14.1574 1.4017 13.5227C1.21969 12.8881 1.21701 12.2591 1.31181 11.5418C1.40345 10.8484 1.59451 10.0205 1.83319 8.98622L2.13385 7.68334C2.33302 6.82023 2.49543 6.11639 2.68821 5.55469C2.88955 4.96806 3.14313 4.4751 3.55912 4.05912C3.9751 3.64313 4.46806 3.38955 5.05469 3.18821C5.61639 2.99543 6.32023 2.83302 7.18335 2.63385L8.48622 2.33319C9.52047 2.09451 10.3484 1.90345 11.0418 1.81181ZM9.49094 8.49514C9.00278 8.00699 8.21133 8.00699 7.72317 8.49514C7.23502 8.9833 7.23502 9.77476 7.72317 10.2629C8.21133 10.7511 9.00278 10.7511 9.49094 10.2629C9.97909 9.77476 9.97909 8.9833 9.49094 8.49514ZM6.66251 7.43448C7.73645 6.36054 9.47766 6.36054 10.5516 7.43448C11.6255 8.50843 11.6255 10.2496 10.5516 11.3236C9.47766 12.3975 7.73645 12.3975 6.66251 11.3236C5.58857 10.2496 5.58857 8.50843 6.66251 7.43448ZM19.0511 11.4902C19.344 11.7831 19.344 12.2579 19.0511 12.5508L12.0721 19.5301C11.7792 19.823 11.3043 19.823 11.0114 19.5301C10.7185 19.2372 10.7185 18.7623 11.0114 18.4694L17.9904 11.4902C18.2833 11.1973 18.7582 11.1973 19.0511 11.4902Z" fill="#7683B0"/>
</svg>
