<svg width="24" height="25" viewBox="0 0 24 25" fill="none" xmlns="http://www.w3.org/2000/svg">
<path d="M3.00297 12.8566C3.29568 13.1497 3.29539 13.6246 3.00232 13.9173L2.84853 14.0709C2.71716 14.2021 2.71716 14.4144 2.84853 14.5456C2.9804 14.6774 3.19458 14.6774 3.32646 14.5456L5.0182 12.856C5.31127 12.5632 5.78614 12.5635 6.07886 12.8566C6.37157 13.1497 6.37128 13.6246 6.07821 13.9173L4.38647 15.607C3.66896 16.3236 2.50602 16.3236 1.78851 15.607C1.0705 14.8898 1.0705 13.7267 1.78851 13.0096L1.94231 12.856C2.23538 12.5632 2.71025 12.5635 3.00297 12.8566Z" fill="#7683B0"/>
<path d="M7.85695 13.8529C8.14984 14.1458 8.14984 14.6206 7.85695 14.9135L5.74004 17.0304C5.44715 17.3233 4.97228 17.3233 4.67938 17.0304C4.38649 16.7375 4.38649 16.2627 4.67938 15.9698L6.79629 13.8529C7.08918 13.56 7.56405 13.56 7.85695 13.8529Z" fill="#7683B0"/>
<path d="M10.6328 16.6252C10.9257 16.9181 10.9257 17.393 10.6328 17.6859L8.53033 19.7883C8.23744 20.0812 7.76256 20.0812 7.46967 19.7883C7.17678 19.4954 7.17678 19.0205 7.46967 18.7276L9.5721 16.6252C9.86499 16.3323 10.3399 16.3323 10.6328 16.6252Z" fill="#7683B0"/>
<path d="M7.47234 17.0211C7.76195 17.3172 7.75667 17.792 7.46053 18.0816L5.75096 19.7536C5.45483 20.0432 4.97998 20.0379 4.69037 19.7418C4.40075 19.4457 4.40603 18.9708 4.70217 18.6812L6.41174 17.0093C6.70788 16.7196 7.18272 16.7249 7.47234 17.0211Z" fill="#7683B0"/>
<path d="M11.6063 18.4262C11.8991 18.7193 11.8988 19.1942 11.6057 19.4869L9.91396 21.1766C9.78259 21.3078 9.78259 21.5201 9.91396 21.6513C10.0458 21.783 10.26 21.783 10.3919 21.6513L10.5457 21.4977C10.8388 21.205 11.3136 21.2053 11.6063 21.4984C11.8991 21.7914 11.8988 22.2663 11.6057 22.559L11.4519 22.7126C10.7344 23.4293 9.57145 23.4293 8.85394 22.7126C8.13593 21.9955 8.13593 20.8324 8.85394 20.1152L10.5457 18.4256C10.8388 18.1329 11.3136 18.1331 11.6063 18.4262Z" fill="#7683B0"/>
<path fill-rule="evenodd" clip-rule="evenodd" d="M17.992 1.75005L18.1257 1.75011H18.6709C19.4245 1.75008 20.064 1.75005 20.5742 1.81835C21.1169 1.89101 21.6242 2.05306 22.0343 2.46148C22.4449 2.87034 22.6082 3.37675 22.6814 3.91869C22.7501 4.42731 22.75 5.06474 22.75 5.81465V6.35813L22.7501 6.49204C22.7506 7.39302 22.7511 8.05278 22.4995 8.65745C22.2482 9.26181 21.7798 9.72757 21.1396 10.3643L21.0445 10.4589L18.7785 12.7153L18.8178 12.7759C19.1587 13.3017 19.4379 13.7324 19.64 14.1048C19.8504 14.4925 20.0034 14.8624 20.0648 15.2749C20.1625 15.9309 20.0741 16.6046 19.8157 17.2229C19.7171 17.4587 19.549 17.7011 19.3822 17.9159C19.2064 18.1424 18.9922 18.3881 18.7635 18.6371C18.3085 19.1321 17.7629 19.6755 17.2803 20.1561L17.2733 20.1631L17.2001 20.2359C16.5258 20.9074 15.356 20.6913 14.9951 19.7872C14.7962 19.2889 14.7185 19.0976 14.6218 18.9215C14.5313 18.7568 14.4276 18.5997 14.3115 18.4518C14.1891 18.2958 14.0459 18.1509 13.6778 17.7843L13.2548 17.4139C13.1838 17.4215 13.1119 17.4253 13.0389 17.4253C12.46 17.4253 11.9864 17.1831 11.5504 16.8519C11.1409 16.5408 10.6885 16.0903 10.1559 15.5598L8.88953 14.2987C8.35688 13.7684 7.90441 13.3178 7.59195 12.9101C7.25936 12.476 7.01487 12.0028 7.01487 11.4234C7.01487 11.336 7.02047 11.2502 7.03139 11.1659L6.34391 10.4813C6.30162 10.4392 6.28528 10.4229 6.26922 10.4074C5.95306 10.101 5.58101 9.85721 5.1729 9.68927C5.15217 9.68073 5.13072 9.67223 5.07512 9.65023L4.7457 9.51985C3.79902 9.14519 3.54291 7.92334 4.26686 7.20246L4.27384 7.1955C4.75648 6.7149 5.30213 6.17157 5.79933 5.71855C6.04932 5.49077 6.29601 5.27757 6.52341 5.10252C6.7392 4.93639 6.98222 4.76928 7.21832 4.67144C7.83802 4.41463 8.51288 4.3269 9.16985 4.42387C9.58265 4.4848 9.9533 4.63671 10.3423 4.84611C10.7162 5.04732 11.1486 5.3253 11.6768 5.66484L11.7425 5.70708L14.012 3.44712L14.1066 3.35293C14.7465 2.71486 15.2139 2.24886 15.8199 1.99889C16.4256 1.74906 17.0864 1.74948 17.992 1.75005ZM17.6921 13.7972C17.9734 14.2323 18.1754 14.5508 18.3217 14.8204C18.4875 15.1259 18.5554 15.3223 18.5812 15.4958C18.6374 15.8731 18.5878 16.2709 18.4317 16.6445C18.4128 16.6898 18.3465 16.8039 18.1974 16.9961C18.0573 17.1765 17.8739 17.3882 17.6589 17.6221C17.2539 18.0629 16.7662 18.551 16.3015 19.0139C16.1635 18.6697 16.0627 18.4291 15.9366 18.1994C15.8068 17.9632 15.658 17.7379 15.4916 17.5258C15.3039 17.2866 15.0892 17.0729 14.7525 16.7377L14.7163 16.7016C14.75 16.6735 14.7836 16.645 14.8171 16.6162C15.1468 16.3318 15.516 15.9641 15.9405 15.5414L17.6921 13.7972ZM18.1257 3.25011C17.0287 3.25011 16.6883 3.26329 16.3919 3.38557C16.0958 3.5077 15.8462 3.73754 15.0705 4.51002L9.98379 9.57532C9.5493 10.008 9.22327 10.3332 8.97828 10.6124C8.73194 10.8932 8.61355 11.0774 8.55801 11.2154C8.52638 11.2939 8.51487 11.3586 8.51487 11.4234C8.51487 11.541 8.55199 11.6967 8.78263 11.9978C9.02643 12.3159 9.4055 12.6957 9.98379 13.2715L10.0519 13.3394L11.3149 12.0817C11.6084 11.7895 12.0833 11.7905 12.3756 12.084C12.6679 12.3775 12.6669 12.8524 12.3733 13.1446L11.1148 14.3979L11.1785 14.4613C11.7568 15.0371 12.1382 15.4146 12.4578 15.6575C12.76 15.8871 12.9179 15.9253 13.0389 15.9253C13.1008 15.9253 13.1612 15.9152 13.2315 15.8893C13.3677 15.8392 13.5518 15.7267 13.8373 15.4804C14.1217 15.2351 14.4536 14.9052 14.8994 14.4613L19.9861 9.396C20.7622 8.62315 20.9924 8.37509 21.1146 8.08136C21.2366 7.78796 21.25 7.45116 21.25 6.35812V5.8653C21.25 5.05083 21.2484 4.51574 21.1949 4.11939C21.1443 3.74494 21.0602 3.60834 20.9759 3.52438C20.8911 3.43998 20.7527 3.35563 20.3751 3.30508C19.9763 3.25169 19.4382 3.25011 18.6206 3.25011H18.1257ZM18.3474 6.13287C17.3949 5.18438 15.8519 5.18438 14.8994 6.13287C13.9451 7.08311 13.9451 8.62508 14.8994 9.57532C15.8519 10.5238 17.3949 10.5238 18.3474 9.57532C19.3016 8.62508 19.3016 7.08311 18.3474 6.13287ZM15.9578 7.19577C16.325 6.83008 16.9217 6.83008 17.289 7.19577C17.6545 7.55972 17.6545 8.14847 17.289 8.51242C16.9217 8.87811 16.325 8.87811 15.9578 8.51242C15.5923 8.14847 15.5923 7.55972 15.9578 7.19577ZM10.6542 6.79082C10.2199 6.51237 9.90135 6.31219 9.63152 6.16697C9.32445 6.0017 9.12638 5.93371 8.95081 5.90779C8.57003 5.85159 8.16892 5.9012 7.79258 6.05716C7.7463 6.07634 7.6313 6.14262 7.43842 6.29111C7.25714 6.43066 7.04451 6.61327 6.80958 6.82733C6.36892 7.22884 5.88124 7.71193 5.41822 8.17281L5.6271 8.25548L5.63213 8.25747C5.68121 8.27689 5.7125 8.28928 5.74372 8.30212C6.32749 8.54235 6.86014 8.89121 7.31311 9.33019C7.33742 9.35374 7.36131 9.37754 7.39891 9.41497L7.73891 9.75355C7.77546 9.70985 7.81278 9.66641 7.85072 9.62317C8.13286 9.30158 8.49451 8.94146 8.90929 8.52843L10.6542 6.79082Z" fill="#7683B0"/>
</svg>
