<svg width="127" height="27" viewBox="0 0 127 27" fill="none" xmlns="http://www.w3.org/2000/svg">
<path d="M2 1V26C2 26 4.21006 15.2853 6.35512 11.6771C8.50018 8.06884 3.52754 15.5833 9.07708 16.625C14.6266 17.6667 13.9766 1 13.9766 1V14.1704V26" stroke="url(#paint0_linear_7_96)" stroke-width="4"/>
<path d="M37.72 7H40.32V21H37.72V7ZM30.48 21H27.88V7H30.48V21ZM37.92 15H30.26V12.78H37.92V15ZM50.6314 21.2C49.5381 21.2 48.5314 21.02 47.6114 20.66C46.6914 20.3 45.8914 19.8 45.2114 19.16C44.5314 18.5067 44.0047 17.7467 43.6314 16.88C43.2581 16 43.0714 15.04 43.0714 14C43.0714 12.96 43.2581 12.0067 43.6314 11.14C44.0047 10.26 44.5314 9.5 45.2114 8.86C45.8914 8.20667 46.6914 7.7 47.6114 7.34C48.5314 6.98 49.5314 6.8 50.6114 6.8C51.7047 6.8 52.7047 6.98 53.6114 7.34C54.5314 7.7 55.3314 8.20667 56.0114 8.86C56.6914 9.5 57.2181 10.26 57.5914 11.14C57.9647 12.0067 58.1514 12.96 58.1514 14C58.1514 15.04 57.9647 16 57.5914 16.88C57.2181 17.76 56.6914 18.52 56.0114 19.16C55.3314 19.8 54.5314 20.3 53.6114 20.66C52.7047 21.02 51.7114 21.2 50.6314 21.2ZM50.6114 18.92C51.3181 18.92 51.9714 18.8 52.5714 18.56C53.1714 18.32 53.6914 17.98 54.1314 17.54C54.5714 17.0867 54.9114 16.5667 55.1514 15.98C55.4047 15.38 55.5314 14.72 55.5314 14C55.5314 13.28 55.4047 12.6267 55.1514 12.04C54.9114 11.44 54.5714 10.92 54.1314 10.48C53.6914 10.0267 53.1714 9.68 52.5714 9.44C51.9714 9.2 51.3181 9.08 50.6114 9.08C49.9047 9.08 49.2514 9.2 48.6514 9.44C48.0647 9.68 47.5447 10.0267 47.0914 10.48C46.6514 10.92 46.3047 11.44 46.0514 12.04C45.8114 12.6267 45.6914 13.28 45.6914 14C45.6914 14.7067 45.8114 15.36 46.0514 15.96C46.3047 16.56 46.6514 17.0867 47.0914 17.54C47.5314 17.98 48.0514 18.32 48.6514 18.56C49.2514 18.8 49.9047 18.92 50.6114 18.92ZM60.9073 21V7H66.6673C67.9073 7 68.9673 7.2 69.8473 7.6C70.7407 8 71.4273 8.57333 71.9073 9.32C72.3873 10.0667 72.6273 10.9533 72.6273 11.98C72.6273 13.0067 72.3873 13.8933 71.9073 14.64C71.4273 15.3733 70.7407 15.94 69.8473 16.34C68.9673 16.7267 67.9073 16.92 66.6673 16.92H62.3473L63.5073 15.74V21H60.9073ZM70.0673 21L66.5273 15.92H69.3073L72.8673 21H70.0673ZM63.5073 16.02L62.3473 14.78H66.5473C67.694 14.78 68.554 14.5333 69.1273 14.04C69.714 13.5467 70.0073 12.86 70.0073 11.98C70.0073 11.0867 69.714 10.4 69.1273 9.92C68.554 9.44 67.694 9.2 66.5473 9.2H62.3473L63.5073 7.92V16.02ZM75.5363 21V7H78.1363V21H75.5363ZM80.863 21V19.26L89.903 8.22L90.203 9.2H81.003V7H92.543V8.74L83.503 19.78L83.183 18.8H92.803V21H80.863ZM101.588 21.2C100.495 21.2 99.4884 21.02 98.5684 20.66C97.6484 20.3 96.8484 19.8 96.1684 19.16C95.4884 18.5067 94.9618 17.7467 94.5884 16.88C94.2151 16 94.0284 15.04 94.0284 14C94.0284 12.96 94.2151 12.0067 94.5884 11.14C94.9618 10.26 95.4884 9.5 96.1684 8.86C96.8484 8.20667 97.6484 7.7 98.5684 7.34C99.4884 6.98 100.488 6.8 101.568 6.8C102.662 6.8 103.662 6.98 104.568 7.34C105.488 7.7 106.288 8.20667 106.968 8.86C107.648 9.5 108.175 10.26 108.548 11.14C108.922 12.0067 109.108 12.96 109.108 14C109.108 15.04 108.922 16 108.548 16.88C108.175 17.76 107.648 18.52 106.968 19.16C106.288 19.8 105.488 20.3 104.568 20.66C103.662 21.02 102.668 21.2 101.588 21.2ZM101.568 18.92C102.275 18.92 102.928 18.8 103.528 18.56C104.128 18.32 104.648 17.98 105.088 17.54C105.528 17.0867 105.868 16.5667 106.108 15.98C106.362 15.38 106.488 14.72 106.488 14C106.488 13.28 106.362 12.6267 106.108 12.04C105.868 11.44 105.528 10.92 105.088 10.48C104.648 10.0267 104.128 9.68 103.528 9.44C102.928 9.2 102.275 9.08 101.568 9.08C100.862 9.08 100.208 9.2 99.6084 9.44C99.0218 9.68 98.5018 10.0267 98.0484 10.48C97.6084 10.92 97.2618 11.44 97.0084 12.04C96.7684 12.6267 96.6484 13.28 96.6484 14C96.6484 14.7067 96.7684 15.36 97.0084 15.96C97.2618 16.56 97.6084 17.0867 98.0484 17.54C98.4884 17.98 99.0084 18.32 99.6084 18.56C100.208 18.8 100.862 18.92 101.568 18.92ZM111.864 21V7H114.004L122.784 17.78H121.724V7H124.304V21H122.164L113.384 10.22H114.444V21H111.864Z" fill="white"/>
<defs>
<linearGradient id="paint0_linear_7_96" x1="2" y1="1" x2="18.6504" y2="18.4035" gradientUnits="userSpaceOnUse">
<stop stop-color="#FF6262"/>
<stop offset="0.515625" stop-color="#FFC738"/>
<stop offset="1" stop-color="#5AF5FF"/>
</linearGradient>
</defs>
</svg>
